<mxfile host="app.diagrams.net" agent="Mozilla/5.0 (Windows NT 10.0; Win64; x64; rv:131.0) Gecko/20100101 Firefox/131.0" version="24.7.17">
  <diagram name="PÃ¡gina-1" id="G7amNYVhqQyI5fqwSNUv">
    <mxGraphModel dx="986" dy="501" grid="1" gridSize="10" guides="1" tooltips="1" connect="1" arrows="1" fold="1" page="1" pageScale="1" pageWidth="850" pageHeight="1100" math="0" shadow="0">
      <root>
        <mxCell id="0" />
        <mxCell id="1" parent="0" />
        <mxCell id="rqSsL1hfl206YyGoqaIQ-1" value="&lt;font style=&quot;font-size: 16px;&quot;&gt;&lt;b&gt;courtsService&lt;/b&gt;&lt;/font&gt;" style="text;html=1;align=center;verticalAlign=middle;resizable=0;points=[];autosize=1;strokeColor=none;fillColor=none;" parent="1" vertex="1">
          <mxGeometry x="360" y="40" width="130" height="30" as="geometry" />
        </mxCell>
        <mxCell id="rqSsL1hfl206YyGoqaIQ-6" style="edgeStyle=orthogonalEdgeStyle;rounded=0;orthogonalLoop=1;jettySize=auto;html=1;" parent="1" source="rqSsL1hfl206YyGoqaIQ-2" target="rqSsL1hfl206YyGoqaIQ-7" edge="1">
          <mxGeometry relative="1" as="geometry">
            <mxPoint x="110" y="150" as="targetPoint" />
          </mxGeometry>
        </mxCell>
        <mxCell id="rqSsL1hfl206YyGoqaIQ-2" value="findAll" style="text;html=1;align=center;verticalAlign=middle;resizable=0;points=[];autosize=1;strokeColor=none;fillColor=none;" parent="1" vertex="1">
          <mxGeometry x="80" y="88" width="60" height="30" as="geometry" />
        </mxCell>
        <mxCell id="rqSsL1hfl206YyGoqaIQ-16" style="edgeStyle=orthogonalEdgeStyle;rounded=0;orthogonalLoop=1;jettySize=auto;html=1;" parent="1" source="rqSsL1hfl206YyGoqaIQ-3" target="rqSsL1hfl206YyGoqaIQ-18" edge="1">
          <mxGeometry relative="1" as="geometry">
            <mxPoint x="290" y="150" as="targetPoint" />
          </mxGeometry>
        </mxCell>
        <mxCell id="rqSsL1hfl206YyGoqaIQ-3" value="&lt;div&gt;findById&lt;/div&gt;&lt;div&gt;param: courtId&lt;br&gt;&lt;/div&gt;" style="text;html=1;align=center;verticalAlign=middle;resizable=0;points=[];autosize=1;strokeColor=none;fillColor=none;" parent="1" vertex="1">
          <mxGeometry x="240" y="83" width="100" height="40" as="geometry" />
        </mxCell>
        <mxCell id="rqSsL1hfl206YyGoqaIQ-28" style="edgeStyle=orthogonalEdgeStyle;rounded=0;orthogonalLoop=1;jettySize=auto;html=1;" parent="1" source="rqSsL1hfl206YyGoqaIQ-4" target="rqSsL1hfl206YyGoqaIQ-29" edge="1">
          <mxGeometry relative="1" as="geometry">
            <mxPoint x="465" y="149.99999999999994" as="targetPoint" />
          </mxGeometry>
        </mxCell>
        <mxCell id="rqSsL1hfl206YyGoqaIQ-4" value="&lt;div&gt;search&lt;/div&gt;&lt;div&gt;param: term&lt;br&gt;&lt;/div&gt;" style="text;html=1;align=center;verticalAlign=middle;resizable=0;points=[];autosize=1;strokeColor=none;fillColor=none;" parent="1" vertex="1">
          <mxGeometry x="420" y="83" width="90" height="40" as="geometry" />
        </mxCell>
        <mxCell id="rqSsL1hfl206YyGoqaIQ-38" style="edgeStyle=orthogonalEdgeStyle;rounded=0;orthogonalLoop=1;jettySize=auto;html=1;" parent="1" source="rqSsL1hfl206YyGoqaIQ-5" target="rqSsL1hfl206YyGoqaIQ-39" edge="1">
          <mxGeometry relative="1" as="geometry">
            <mxPoint x="740" y="150" as="targetPoint" />
          </mxGeometry>
        </mxCell>
        <mxCell id="rqSsL1hfl206YyGoqaIQ-5" value="&lt;div&gt;findByCode&lt;/div&gt;&lt;div&gt;param: codigo&lt;br&gt;&lt;/div&gt;" style="text;html=1;align=center;verticalAlign=middle;resizable=0;points=[];autosize=1;strokeColor=none;fillColor=none;" parent="1" vertex="1">
          <mxGeometry x="690" y="83" width="100" height="40" as="geometry" />
        </mxCell>
        <mxCell id="rqSsL1hfl206YyGoqaIQ-8" style="edgeStyle=orthogonalEdgeStyle;rounded=0;orthogonalLoop=1;jettySize=auto;html=1;" parent="1" source="rqSsL1hfl206YyGoqaIQ-7" target="rqSsL1hfl206YyGoqaIQ-10" edge="1">
          <mxGeometry relative="1" as="geometry">
            <mxPoint x="30" y="270" as="targetPoint" />
            <Array as="points">
              <mxPoint x="40" y="190" />
            </Array>
          </mxGeometry>
        </mxCell>
        <mxCell id="rqSsL1hfl206YyGoqaIQ-9" value="No" style="edgeLabel;html=1;align=center;verticalAlign=middle;resizable=0;points=[];" parent="rqSsL1hfl206YyGoqaIQ-8" vertex="1" connectable="0">
          <mxGeometry x="0.1963" y="4" relative="1" as="geometry">
            <mxPoint as="offset" />
          </mxGeometry>
        </mxCell>
        <mxCell id="rqSsL1hfl206YyGoqaIQ-12" style="edgeStyle=orthogonalEdgeStyle;rounded=0;orthogonalLoop=1;jettySize=auto;html=1;exitX=1;exitY=0.5;exitDx=0;exitDy=0;" parent="1" source="rqSsL1hfl206YyGoqaIQ-7" target="rqSsL1hfl206YyGoqaIQ-14" edge="1">
          <mxGeometry relative="1" as="geometry">
            <mxPoint x="170" y="250" as="targetPoint" />
          </mxGeometry>
        </mxCell>
        <mxCell id="rqSsL1hfl206YyGoqaIQ-13" value="Si" style="edgeLabel;html=1;align=center;verticalAlign=middle;resizable=0;points=[];" parent="rqSsL1hfl206YyGoqaIQ-12" vertex="1" connectable="0">
          <mxGeometry x="0.0195" relative="1" as="geometry">
            <mxPoint as="offset" />
          </mxGeometry>
        </mxCell>
        <mxCell id="rqSsL1hfl206YyGoqaIQ-7" value="Buscar los tribunales" style="rhombus;whiteSpace=wrap;html=1;" parent="1" vertex="1">
          <mxGeometry x="70" y="150" width="80" height="80" as="geometry" />
        </mxCell>
        <mxCell id="rqSsL1hfl206YyGoqaIQ-10" value="Retornar Error: NotFound 404" style="rounded=0;whiteSpace=wrap;html=1;" parent="1" vertex="1">
          <mxGeometry y="250" width="80" height="40" as="geometry" />
        </mxCell>
        <mxCell id="rqSsL1hfl206YyGoqaIQ-14" value="Retornar los tribunales: Court[]" style="rounded=0;whiteSpace=wrap;html=1;" parent="1" vertex="1">
          <mxGeometry x="130" y="250" width="80" height="40" as="geometry" />
        </mxCell>
        <mxCell id="rqSsL1hfl206YyGoqaIQ-19" style="edgeStyle=orthogonalEdgeStyle;rounded=0;orthogonalLoop=1;jettySize=auto;html=1;" parent="1" source="rqSsL1hfl206YyGoqaIQ-18" target="rqSsL1hfl206YyGoqaIQ-20" edge="1">
          <mxGeometry relative="1" as="geometry">
            <mxPoint x="290" y="200" as="targetPoint" />
          </mxGeometry>
        </mxCell>
        <mxCell id="rqSsL1hfl206YyGoqaIQ-18" value="Ingresar el courtId" style="shape=parallelogram;perimeter=parallelogramPerimeter;whiteSpace=wrap;html=1;fixedSize=1;" parent="1" vertex="1">
          <mxGeometry x="252.5" y="140" width="75" height="37.5" as="geometry" />
        </mxCell>
        <mxCell id="rqSsL1hfl206YyGoqaIQ-21" style="edgeStyle=orthogonalEdgeStyle;rounded=0;orthogonalLoop=1;jettySize=auto;html=1;" parent="1" source="rqSsL1hfl206YyGoqaIQ-20" target="rqSsL1hfl206YyGoqaIQ-22" edge="1">
          <mxGeometry relative="1" as="geometry">
            <mxPoint x="230" y="310" as="targetPoint" />
          </mxGeometry>
        </mxCell>
        <mxCell id="rqSsL1hfl206YyGoqaIQ-23" value="No" style="edgeLabel;html=1;align=center;verticalAlign=middle;resizable=0;points=[];" parent="rqSsL1hfl206YyGoqaIQ-21" vertex="1" connectable="0">
          <mxGeometry x="0.5989" y="2" relative="1" as="geometry">
            <mxPoint as="offset" />
          </mxGeometry>
        </mxCell>
        <mxCell id="rqSsL1hfl206YyGoqaIQ-24" style="edgeStyle=orthogonalEdgeStyle;rounded=0;orthogonalLoop=1;jettySize=auto;html=1;" parent="1" source="rqSsL1hfl206YyGoqaIQ-20" target="rqSsL1hfl206YyGoqaIQ-27" edge="1">
          <mxGeometry relative="1" as="geometry">
            <mxPoint x="340" y="300" as="targetPoint" />
          </mxGeometry>
        </mxCell>
        <mxCell id="rqSsL1hfl206YyGoqaIQ-25" value="Si" style="edgeLabel;html=1;align=center;verticalAlign=middle;resizable=0;points=[];" parent="rqSsL1hfl206YyGoqaIQ-24" vertex="1" connectable="0">
          <mxGeometry x="0.5171" relative="1" as="geometry">
            <mxPoint as="offset" />
          </mxGeometry>
        </mxCell>
        <mxCell id="rqSsL1hfl206YyGoqaIQ-20" value="Buscar el tribunal" style="rhombus;whiteSpace=wrap;html=1;" parent="1" vertex="1">
          <mxGeometry x="260" y="200" width="60" height="60" as="geometry" />
        </mxCell>
        <mxCell id="rqSsL1hfl206YyGoqaIQ-22" value="&lt;font style=&quot;font-size: 8px;&quot;&gt;Retornar Error: NotFound 404&lt;/font&gt;" style="rounded=0;whiteSpace=wrap;html=1;" parent="1" vertex="1">
          <mxGeometry x="192.5" y="330" width="60" height="30" as="geometry" />
        </mxCell>
        <mxCell id="rqSsL1hfl206YyGoqaIQ-27" value="Retornar el tribunal: Court" style="rounded=0;whiteSpace=wrap;html=1;" parent="1" vertex="1">
          <mxGeometry x="327.5" y="290" width="70" height="35" as="geometry" />
        </mxCell>
        <mxCell id="rqSsL1hfl206YyGoqaIQ-30" style="edgeStyle=orthogonalEdgeStyle;rounded=0;orthogonalLoop=1;jettySize=auto;html=1;" parent="1" source="rqSsL1hfl206YyGoqaIQ-29" target="rqSsL1hfl206YyGoqaIQ-31" edge="1">
          <mxGeometry relative="1" as="geometry">
            <mxPoint x="465" y="220" as="targetPoint" />
          </mxGeometry>
        </mxCell>
        <mxCell id="rqSsL1hfl206YyGoqaIQ-29" value="Ingresar el term" style="shape=parallelogram;perimeter=parallelogramPerimeter;whiteSpace=wrap;html=1;fixedSize=1;" parent="1" vertex="1">
          <mxGeometry x="427.5" y="150" width="75" height="37.5" as="geometry" />
        </mxCell>
        <mxCell id="rqSsL1hfl206YyGoqaIQ-32" style="edgeStyle=orthogonalEdgeStyle;rounded=0;orthogonalLoop=1;jettySize=auto;html=1;" parent="1" source="rqSsL1hfl206YyGoqaIQ-31" target="rqSsL1hfl206YyGoqaIQ-36" edge="1">
          <mxGeometry relative="1" as="geometry">
            <mxPoint x="465" y="300" as="targetPoint" />
          </mxGeometry>
        </mxCell>
        <mxCell id="rqSsL1hfl206YyGoqaIQ-34" value="Si" style="edgeLabel;html=1;align=center;verticalAlign=middle;resizable=0;points=[];" parent="rqSsL1hfl206YyGoqaIQ-32" vertex="1" connectable="0">
          <mxGeometry x="-0.0255" relative="1" as="geometry">
            <mxPoint as="offset" />
          </mxGeometry>
        </mxCell>
        <mxCell id="rqSsL1hfl206YyGoqaIQ-33" style="edgeStyle=orthogonalEdgeStyle;rounded=0;orthogonalLoop=1;jettySize=auto;html=1;" parent="1" source="rqSsL1hfl206YyGoqaIQ-31" target="rqSsL1hfl206YyGoqaIQ-37" edge="1">
          <mxGeometry relative="1" as="geometry">
            <mxPoint x="550" y="290" as="targetPoint" />
          </mxGeometry>
        </mxCell>
        <mxCell id="rqSsL1hfl206YyGoqaIQ-35" value="No" style="edgeLabel;html=1;align=center;verticalAlign=middle;resizable=0;points=[];" parent="rqSsL1hfl206YyGoqaIQ-33" vertex="1" connectable="0">
          <mxGeometry x="0.4355" y="1" relative="1" as="geometry">
            <mxPoint as="offset" />
          </mxGeometry>
        </mxCell>
        <mxCell id="rqSsL1hfl206YyGoqaIQ-31" value="Buscar los tribunales" style="rhombus;whiteSpace=wrap;html=1;" parent="1" vertex="1">
          <mxGeometry x="437.5" y="210" width="55" height="55" as="geometry" />
        </mxCell>
        <mxCell id="rqSsL1hfl206YyGoqaIQ-36" value="Retornar los tribunales: Court[]" style="rounded=0;whiteSpace=wrap;html=1;" parent="1" vertex="1">
          <mxGeometry x="425" y="320" width="80" height="40" as="geometry" />
        </mxCell>
        <mxCell id="rqSsL1hfl206YyGoqaIQ-37" value="Retornar Error: NotFound 404" style="rounded=0;whiteSpace=wrap;html=1;" parent="1" vertex="1">
          <mxGeometry x="530" y="250" width="80" height="40" as="geometry" />
        </mxCell>
        <mxCell id="rqSsL1hfl206YyGoqaIQ-40" style="edgeStyle=orthogonalEdgeStyle;rounded=0;orthogonalLoop=1;jettySize=auto;html=1;" parent="1" source="rqSsL1hfl206YyGoqaIQ-39" target="rqSsL1hfl206YyGoqaIQ-41" edge="1">
          <mxGeometry relative="1" as="geometry">
            <mxPoint x="740" y="240" as="targetPoint" />
          </mxGeometry>
        </mxCell>
        <mxCell id="rqSsL1hfl206YyGoqaIQ-39" value="Ingresar el codigo" style="shape=parallelogram;perimeter=parallelogramPerimeter;whiteSpace=wrap;html=1;fixedSize=1;" parent="1" vertex="1">
          <mxGeometry x="695" y="146.25" width="90" height="45" as="geometry" />
        </mxCell>
        <mxCell id="rqSsL1hfl206YyGoqaIQ-42" style="edgeStyle=orthogonalEdgeStyle;rounded=0;orthogonalLoop=1;jettySize=auto;html=1;" parent="1" source="rqSsL1hfl206YyGoqaIQ-41" target="rqSsL1hfl206YyGoqaIQ-47" edge="1">
          <mxGeometry relative="1" as="geometry">
            <mxPoint x="640" y="340" as="targetPoint" />
          </mxGeometry>
        </mxCell>
        <mxCell id="rqSsL1hfl206YyGoqaIQ-44" value="Si" style="edgeLabel;html=1;align=center;verticalAlign=middle;resizable=0;points=[];" parent="rqSsL1hfl206YyGoqaIQ-42" vertex="1" connectable="0">
          <mxGeometry x="0.3634" relative="1" as="geometry">
            <mxPoint as="offset" />
          </mxGeometry>
        </mxCell>
        <mxCell id="rqSsL1hfl206YyGoqaIQ-43" style="edgeStyle=orthogonalEdgeStyle;rounded=0;orthogonalLoop=1;jettySize=auto;html=1;" parent="1" source="rqSsL1hfl206YyGoqaIQ-41" target="rqSsL1hfl206YyGoqaIQ-48" edge="1">
          <mxGeometry relative="1" as="geometry">
            <mxPoint x="840" y="340" as="targetPoint" />
            <Array as="points">
              <mxPoint x="840" y="270" />
            </Array>
          </mxGeometry>
        </mxCell>
        <mxCell id="rqSsL1hfl206YyGoqaIQ-45" value="No" style="edgeLabel;html=1;align=center;verticalAlign=middle;resizable=0;points=[];" parent="rqSsL1hfl206YyGoqaIQ-43" vertex="1" connectable="0">
          <mxGeometry x="0.3817" y="1" relative="1" as="geometry">
            <mxPoint x="-11" as="offset" />
          </mxGeometry>
        </mxCell>
        <mxCell id="rqSsL1hfl206YyGoqaIQ-41" value="Buscar el tribunal" style="rhombus;whiteSpace=wrap;html=1;" parent="1" vertex="1">
          <mxGeometry x="700" y="230" width="80" height="80" as="geometry" />
        </mxCell>
        <mxCell id="rqSsL1hfl206YyGoqaIQ-47" value="Retornar el tribunal: Court" style="rounded=0;whiteSpace=wrap;html=1;" parent="1" vertex="1">
          <mxGeometry x="610" y="340" width="80" height="40" as="geometry" />
        </mxCell>
        <mxCell id="rqSsL1hfl206YyGoqaIQ-48" value="Retornar Error: NotFound 404" style="rounded=0;whiteSpace=wrap;html=1;" parent="1" vertex="1">
          <mxGeometry x="770" y="340" width="80" height="40" as="geometry" />
        </mxCell>
        <mxCell id="rqSsL1hfl206YyGoqaIQ-51" style="edgeStyle=orthogonalEdgeStyle;rounded=0;orthogonalLoop=1;jettySize=auto;html=1;" parent="1" source="rqSsL1hfl206YyGoqaIQ-50" target="rqSsL1hfl206YyGoqaIQ-52" edge="1">
          <mxGeometry relative="1" as="geometry">
            <mxPoint x="110.00000000000011" y="480" as="targetPoint" />
          </mxGeometry>
        </mxCell>
        <mxCell id="rqSsL1hfl206YyGoqaIQ-50" value="&lt;div&gt;create&lt;/div&gt;&lt;div&gt;body: createCourtDto&lt;br&gt;&lt;/div&gt;" style="text;html=1;align=center;verticalAlign=middle;resizable=0;points=[];autosize=1;strokeColor=none;fillColor=none;" parent="1" vertex="1">
          <mxGeometry x="40" y="405" width="140" height="40" as="geometry" />
        </mxCell>
        <mxCell id="rqSsL1hfl206YyGoqaIQ-53" style="edgeStyle=orthogonalEdgeStyle;rounded=0;orthogonalLoop=1;jettySize=auto;html=1;" parent="1" source="rqSsL1hfl206YyGoqaIQ-52" target="rqSsL1hfl206YyGoqaIQ-54" edge="1">
          <mxGeometry relative="1" as="geometry">
            <mxPoint x="110.00000000000011" y="560" as="targetPoint" />
          </mxGeometry>
        </mxCell>
        <mxCell id="rqSsL1hfl206YyGoqaIQ-52" value="Ingresar el createCourtDto" style="shape=parallelogram;perimeter=parallelogramPerimeter;whiteSpace=wrap;html=1;fixedSize=1;" parent="1" vertex="1">
          <mxGeometry x="65" y="480" width="90" height="45" as="geometry" />
        </mxCell>
        <mxCell id="rqSsL1hfl206YyGoqaIQ-55" style="edgeStyle=orthogonalEdgeStyle;rounded=0;orthogonalLoop=1;jettySize=auto;html=1;exitX=-0.025;exitY=0.528;exitDx=0;exitDy=0;exitPerimeter=0;" parent="1" source="rqSsL1hfl206YyGoqaIQ-54" target="rqSsL1hfl206YyGoqaIQ-59" edge="1">
          <mxGeometry relative="1" as="geometry">
            <mxPoint x="20" y="680" as="targetPoint" />
            <Array as="points">
              <mxPoint x="68" y="600" />
              <mxPoint x="30" y="600" />
            </Array>
          </mxGeometry>
        </mxCell>
        <mxCell id="rqSsL1hfl206YyGoqaIQ-56" value="Si" style="edgeLabel;html=1;align=center;verticalAlign=middle;resizable=0;points=[];" parent="rqSsL1hfl206YyGoqaIQ-55" vertex="1" connectable="0">
          <mxGeometry x="0.1429" y="-2" relative="1" as="geometry">
            <mxPoint as="offset" />
          </mxGeometry>
        </mxCell>
        <mxCell id="rqSsL1hfl206YyGoqaIQ-57" style="edgeStyle=orthogonalEdgeStyle;rounded=0;orthogonalLoop=1;jettySize=auto;html=1;" parent="1" source="rqSsL1hfl206YyGoqaIQ-54" target="rqSsL1hfl206YyGoqaIQ-60" edge="1">
          <mxGeometry relative="1" as="geometry">
            <mxPoint x="200" y="670" as="targetPoint" />
          </mxGeometry>
        </mxCell>
        <mxCell id="rqSsL1hfl206YyGoqaIQ-58" value="No" style="edgeLabel;html=1;align=center;verticalAlign=middle;resizable=0;points=[];" parent="rqSsL1hfl206YyGoqaIQ-57" vertex="1" connectable="0">
          <mxGeometry x="0.1304" y="1" relative="1" as="geometry">
            <mxPoint as="offset" />
          </mxGeometry>
        </mxCell>
        <mxCell id="rqSsL1hfl206YyGoqaIQ-54" value="Buscar si existe por el codigo " style="rhombus;whiteSpace=wrap;html=1;" parent="1" vertex="1">
          <mxGeometry x="70.00000000000011" y="560" width="80" height="80" as="geometry" />
        </mxCell>
        <mxCell id="rqSsL1hfl206YyGoqaIQ-59" value="&lt;font style=&quot;font-size: 8px;&quot;&gt;Retornar Error: BadRequestExcep&lt;br&gt;&lt;/font&gt;" style="rounded=0;whiteSpace=wrap;html=1;" parent="1" vertex="1">
          <mxGeometry y="670" width="80" height="40" as="geometry" />
        </mxCell>
        <mxCell id="rqSsL1hfl206YyGoqaIQ-61" style="edgeStyle=orthogonalEdgeStyle;rounded=0;orthogonalLoop=1;jettySize=auto;html=1;" parent="1" source="rqSsL1hfl206YyGoqaIQ-60" target="rqSsL1hfl206YyGoqaIQ-62" edge="1">
          <mxGeometry relative="1" as="geometry">
            <mxPoint x="200" y="739.9999999999999" as="targetPoint" />
          </mxGeometry>
        </mxCell>
        <mxCell id="rqSsL1hfl206YyGoqaIQ-60" value="Validar los datos y crear el tribunal" style="rounded=0;whiteSpace=wrap;html=1;" parent="1" vertex="1">
          <mxGeometry x="160" y="670" width="80" height="40" as="geometry" />
        </mxCell>
        <mxCell id="rqSsL1hfl206YyGoqaIQ-62" value="Retornar el nuevo tribunal: Court" style="rounded=0;whiteSpace=wrap;html=1;" parent="1" vertex="1">
          <mxGeometry x="160" y="730" width="80" height="40" as="geometry" />
        </mxCell>
        <mxCell id="rqSsL1hfl206YyGoqaIQ-64" style="edgeStyle=orthogonalEdgeStyle;rounded=0;orthogonalLoop=1;jettySize=auto;html=1;" parent="1" source="rqSsL1hfl206YyGoqaIQ-63" target="rqSsL1hfl206YyGoqaIQ-65" edge="1">
          <mxGeometry relative="1" as="geometry">
            <mxPoint x="370" y="480" as="targetPoint" />
          </mxGeometry>
        </mxCell>
        <mxCell id="rqSsL1hfl206YyGoqaIQ-63" value="&lt;div&gt;update&lt;/div&gt;&lt;div&gt;param: courtId&lt;/div&gt;&lt;div&gt;body: updateCourtDto&lt;br&gt;&lt;/div&gt;" style="text;html=1;align=center;verticalAlign=middle;resizable=0;points=[];autosize=1;strokeColor=none;fillColor=none;" parent="1" vertex="1">
          <mxGeometry x="300" y="393" width="140" height="60" as="geometry" />
        </mxCell>
        <mxCell id="rqSsL1hfl206YyGoqaIQ-66" style="edgeStyle=orthogonalEdgeStyle;rounded=0;orthogonalLoop=1;jettySize=auto;html=1;" parent="1" source="rqSsL1hfl206YyGoqaIQ-65" target="rqSsL1hfl206YyGoqaIQ-67" edge="1">
          <mxGeometry relative="1" as="geometry">
            <mxPoint x="370" y="560" as="targetPoint" />
          </mxGeometry>
        </mxCell>
        <mxCell id="rqSsL1hfl206YyGoqaIQ-65" value="Ingresar el courtId y el updateCourtDto" style="shape=parallelogram;perimeter=parallelogramPerimeter;whiteSpace=wrap;html=1;fixedSize=1;" parent="1" vertex="1">
          <mxGeometry x="325" y="480" width="90" height="45" as="geometry" />
        </mxCell>
        <mxCell id="rqSsL1hfl206YyGoqaIQ-68" style="edgeStyle=orthogonalEdgeStyle;rounded=0;orthogonalLoop=1;jettySize=auto;html=1;" parent="1" source="rqSsL1hfl206YyGoqaIQ-67" target="rqSsL1hfl206YyGoqaIQ-69" edge="1">
          <mxGeometry relative="1" as="geometry">
            <mxPoint x="300" y="690" as="targetPoint" />
            <Array as="points">
              <mxPoint x="320" y="595" />
            </Array>
          </mxGeometry>
        </mxCell>
        <mxCell id="rqSsL1hfl206YyGoqaIQ-70" value="No" style="edgeLabel;html=1;align=center;verticalAlign=middle;resizable=0;points=[];" parent="rqSsL1hfl206YyGoqaIQ-68" vertex="1" connectable="0">
          <mxGeometry x="0.5355" relative="1" as="geometry">
            <mxPoint as="offset" />
          </mxGeometry>
        </mxCell>
        <mxCell id="rqSsL1hfl206YyGoqaIQ-71" style="edgeStyle=orthogonalEdgeStyle;rounded=0;orthogonalLoop=1;jettySize=auto;html=1;" parent="1" source="rqSsL1hfl206YyGoqaIQ-67" target="rqSsL1hfl206YyGoqaIQ-73" edge="1">
          <mxGeometry relative="1" as="geometry">
            <mxPoint x="440" y="660" as="targetPoint" />
          </mxGeometry>
        </mxCell>
        <mxCell id="rqSsL1hfl206YyGoqaIQ-72" value="Si" style="edgeLabel;html=1;align=center;verticalAlign=middle;resizable=0;points=[];" parent="rqSsL1hfl206YyGoqaIQ-71" vertex="1" connectable="0">
          <mxGeometry x="0.0506" y="-2" relative="1" as="geometry">
            <mxPoint as="offset" />
          </mxGeometry>
        </mxCell>
        <mxCell id="rqSsL1hfl206YyGoqaIQ-67" value="Buscar el tribunal" style="rhombus;whiteSpace=wrap;html=1;" parent="1" vertex="1">
          <mxGeometry x="335" y="560" width="70" height="70" as="geometry" />
        </mxCell>
        <mxCell id="rqSsL1hfl206YyGoqaIQ-69" value="Retornar Error: NotFound 404" style="rounded=0;whiteSpace=wrap;html=1;" parent="1" vertex="1">
          <mxGeometry x="280" y="660" width="80" height="40" as="geometry" />
        </mxCell>
        <mxCell id="rqSsL1hfl206YyGoqaIQ-74" style="edgeStyle=orthogonalEdgeStyle;rounded=0;orthogonalLoop=1;jettySize=auto;html=1;" parent="1" source="rqSsL1hfl206YyGoqaIQ-73" target="rqSsL1hfl206YyGoqaIQ-75" edge="1">
          <mxGeometry relative="1" as="geometry">
            <mxPoint x="452.5" y="720" as="targetPoint" />
          </mxGeometry>
        </mxCell>
        <mxCell id="rqSsL1hfl206YyGoqaIQ-73" value="Validar los datos y actualizar el tribunal" style="rounded=0;whiteSpace=wrap;html=1;" parent="1" vertex="1">
          <mxGeometry x="412.5" y="640" width="80" height="40" as="geometry" />
        </mxCell>
        <mxCell id="rqSsL1hfl206YyGoqaIQ-75" value="Retornar el tribunal actualizado: Court" style="rounded=0;whiteSpace=wrap;html=1;" parent="1" vertex="1">
          <mxGeometry x="411.25" y="710" width="82.5" height="41.25" as="geometry" />
        </mxCell>
        <mxCell id="rqSsL1hfl206YyGoqaIQ-77" style="edgeStyle=orthogonalEdgeStyle;rounded=0;orthogonalLoop=1;jettySize=auto;html=1;" parent="1" source="rqSsL1hfl206YyGoqaIQ-76" target="rqSsL1hfl206YyGoqaIQ-78" edge="1">
          <mxGeometry relative="1" as="geometry">
            <mxPoint x="670" y="480" as="targetPoint" />
          </mxGeometry>
        </mxCell>
        <mxCell id="rqSsL1hfl206YyGoqaIQ-76" value="&lt;div&gt;delete&lt;/div&gt;&lt;div&gt;param: courtId&lt;br&gt;&lt;/div&gt;" style="text;html=1;align=center;verticalAlign=middle;resizable=0;points=[];autosize=1;strokeColor=none;fillColor=none;" parent="1" vertex="1">
          <mxGeometry x="620" y="403" width="100" height="40" as="geometry" />
        </mxCell>
        <mxCell id="rqSsL1hfl206YyGoqaIQ-79" style="edgeStyle=orthogonalEdgeStyle;rounded=0;orthogonalLoop=1;jettySize=auto;html=1;" parent="1" source="rqSsL1hfl206YyGoqaIQ-78" target="rqSsL1hfl206YyGoqaIQ-80" edge="1">
          <mxGeometry relative="1" as="geometry">
            <mxPoint x="670" y="560" as="targetPoint" />
          </mxGeometry>
        </mxCell>
        <mxCell id="rqSsL1hfl206YyGoqaIQ-78" value="Ingresar el courtId" style="shape=parallelogram;perimeter=parallelogramPerimeter;whiteSpace=wrap;html=1;fixedSize=1;" parent="1" vertex="1">
          <mxGeometry x="620" y="475" width="100" height="50" as="geometry" />
        </mxCell>
        <mxCell id="rqSsL1hfl206YyGoqaIQ-81" style="edgeStyle=orthogonalEdgeStyle;rounded=0;orthogonalLoop=1;jettySize=auto;html=1;" parent="1" source="rqSsL1hfl206YyGoqaIQ-80" target="rqSsL1hfl206YyGoqaIQ-84" edge="1">
          <mxGeometry relative="1" as="geometry">
            <mxPoint x="580" y="650" as="targetPoint" />
          </mxGeometry>
        </mxCell>
        <mxCell id="rqSsL1hfl206YyGoqaIQ-82" value="Si" style="edgeLabel;html=1;align=center;verticalAlign=middle;resizable=0;points=[];" parent="rqSsL1hfl206YyGoqaIQ-81" vertex="1" connectable="0">
          <mxGeometry x="0.2484" y="1" relative="1" as="geometry">
            <mxPoint as="offset" />
          </mxGeometry>
        </mxCell>
        <mxCell id="rqSsL1hfl206YyGoqaIQ-87" style="edgeStyle=orthogonalEdgeStyle;rounded=0;orthogonalLoop=1;jettySize=auto;html=1;" parent="1" source="rqSsL1hfl206YyGoqaIQ-80" target="rqSsL1hfl206YyGoqaIQ-89" edge="1">
          <mxGeometry relative="1" as="geometry">
            <mxPoint x="770" y="640" as="targetPoint" />
          </mxGeometry>
        </mxCell>
        <mxCell id="rqSsL1hfl206YyGoqaIQ-88" value="No" style="edgeLabel;html=1;align=center;verticalAlign=middle;resizable=0;points=[];" parent="rqSsL1hfl206YyGoqaIQ-87" vertex="1" connectable="0">
          <mxGeometry x="0.3331" y="-1" relative="1" as="geometry">
            <mxPoint as="offset" />
          </mxGeometry>
        </mxCell>
        <mxCell id="rqSsL1hfl206YyGoqaIQ-80" value="Buscar el tribunal" style="rhombus;whiteSpace=wrap;html=1;" parent="1" vertex="1">
          <mxGeometry x="635" y="560" width="70" height="70" as="geometry" />
        </mxCell>
        <mxCell id="rqSsL1hfl206YyGoqaIQ-85" style="edgeStyle=orthogonalEdgeStyle;rounded=0;orthogonalLoop=1;jettySize=auto;html=1;" parent="1" source="rqSsL1hfl206YyGoqaIQ-84" target="rqSsL1hfl206YyGoqaIQ-86" edge="1">
          <mxGeometry relative="1" as="geometry">
            <mxPoint x="585" y="720" as="targetPoint" />
          </mxGeometry>
        </mxCell>
        <mxCell id="rqSsL1hfl206YyGoqaIQ-84" value="Eliminar el tribunal" style="rounded=0;whiteSpace=wrap;html=1;" parent="1" vertex="1">
          <mxGeometry x="540" y="640" width="90" height="45" as="geometry" />
        </mxCell>
        <mxCell id="rqSsL1hfl206YyGoqaIQ-86" value="Retornar message: &quot;Tribunal eliminado con exito&quot;" style="rounded=0;whiteSpace=wrap;html=1;" parent="1" vertex="1">
          <mxGeometry x="537.5" y="720" width="95" height="47.5" as="geometry" />
        </mxCell>
        <mxCell id="rqSsL1hfl206YyGoqaIQ-89" value="Retornar Error: NotFound 404" style="rounded=0;whiteSpace=wrap;html=1;" parent="1" vertex="1">
          <mxGeometry x="720" y="642.5" width="80" height="40" as="geometry" />
        </mxCell>
        <mxCell id="rqSsL1hfl206YyGoqaIQ-91" style="edgeStyle=orthogonalEdgeStyle;rounded=0;orthogonalLoop=1;jettySize=auto;html=1;" parent="1" source="rqSsL1hfl206YyGoqaIQ-90" target="rqSsL1hfl206YyGoqaIQ-92" edge="1">
          <mxGeometry relative="1" as="geometry">
            <mxPoint x="120" y="910" as="targetPoint" />
          </mxGeometry>
        </mxCell>
        <mxCell id="rqSsL1hfl206YyGoqaIQ-90" value="deleteAll" style="text;html=1;align=center;verticalAlign=middle;resizable=0;points=[];autosize=1;strokeColor=none;fillColor=none;" parent="1" vertex="1">
          <mxGeometry x="85" y="838" width="70" height="30" as="geometry" />
        </mxCell>
        <mxCell id="rqSsL1hfl206YyGoqaIQ-93" style="edgeStyle=orthogonalEdgeStyle;rounded=0;orthogonalLoop=1;jettySize=auto;html=1;" parent="1" source="rqSsL1hfl206YyGoqaIQ-92" target="rqSsL1hfl206YyGoqaIQ-94" edge="1">
          <mxGeometry relative="1" as="geometry">
            <mxPoint x="120" y="1010" as="targetPoint" />
          </mxGeometry>
        </mxCell>
        <mxCell id="rqSsL1hfl206YyGoqaIQ-92" value="Eliminar todos los tribunales" style="rounded=0;whiteSpace=wrap;html=1;" parent="1" vertex="1">
          <mxGeometry x="60" y="910" width="120" height="60" as="geometry" />
        </mxCell>
        <mxCell id="rqSsL1hfl206YyGoqaIQ-94" value="Retornar message: &quot;Tribunales eliminados con exito&quot;" style="rounded=0;whiteSpace=wrap;html=1;" parent="1" vertex="1">
          <mxGeometry x="60" y="1010" width="120" height="60" as="geometry" />
        </mxCell>
      </root>
    </mxGraphModel>
  </diagram>
</mxfile>
